<svg width="214" height="27" viewBox="0 0 214 27" fill="none" xmlns="http://www.w3.org/2000/svg">
<path d="M1.43821 6.05191H3.83523L8.00284 16.228H8.15625L12.3239 6.05191H14.7209V19.1428H12.8416V9.66981H12.7202L8.85938 19.1236H7.29972L3.43892 9.66342H3.31747V19.1428H1.43821V6.05191ZM21.5748 19.341C20.6543 19.341 19.851 19.13 19.165 18.7082C18.4789 18.2863 17.9462 17.6961 17.5669 16.9376C17.1877 16.179 16.998 15.2927 16.998 14.2785C16.998 13.26 17.1877 12.3694 17.5669 11.6066C17.9462 10.8438 18.4789 10.2515 19.165 9.82961C19.851 9.40774 20.6543 9.1968 21.5748 9.1968C22.4952 9.1968 23.2985 9.40774 23.9846 9.82961C24.6706 10.2515 25.2033 10.8438 25.5826 11.6066C25.9618 12.3694 26.1515 13.26 26.1515 14.2785C26.1515 15.2927 25.9618 16.179 25.5826 16.9376C25.2033 17.6961 24.6706 18.2863 23.9846 18.7082C23.2985 19.13 22.4952 19.341 21.5748 19.341ZM21.5811 17.7366C22.1777 17.7366 22.6721 17.5789 23.0641 17.2636C23.4561 16.9482 23.7459 16.5285 23.9334 16.0043C24.1252 15.4802 24.2211 14.9028 24.2211 14.2721C24.2211 13.6457 24.1252 13.0704 23.9334 12.5462C23.7459 12.0178 23.4561 11.5938 23.0641 11.2742C22.6721 10.9546 22.1777 10.7948 21.5811 10.7948C20.9803 10.7948 20.4817 10.9546 20.0854 11.2742C19.6934 11.5938 19.4015 12.0178 19.2097 12.5462C19.0222 13.0704 18.9284 13.6457 18.9284 14.2721C18.9284 14.9028 19.0222 15.4802 19.2097 16.0043C19.4015 16.5285 19.6934 16.9482 20.0854 17.2636C20.4817 17.5789 20.9803 17.7366 21.5811 17.7366ZM30.196 13.3133V19.1428H28.2848V9.32464H30.1193V10.9227H30.2408C30.4666 10.4028 30.8203 9.98515 31.3018 9.66981C31.7876 9.35447 32.3991 9.1968 33.1364 9.1968C33.8054 9.1968 34.3913 9.33742 34.8942 9.61867C35.397 9.89566 35.7869 10.309 36.0639 10.8587C36.3409 11.4084 36.4794 12.0881 36.4794 12.8978V19.1428H34.5682V13.1279C34.5682 12.4163 34.3828 11.8602 34.0121 11.4596C33.6413 11.0548 33.1321 10.8523 32.4844 10.8523C32.0412 10.8523 31.647 10.9482 31.3018 11.14C30.9609 11.3317 30.6903 11.613 30.4901 11.9837C30.294 12.3502 30.196 12.7934 30.196 13.3133ZM43.6257 9.32464V10.8587H38.2628V9.32464H43.6257ZM39.701 6.97237H41.6122V16.26C41.6122 16.6307 41.6676 16.9099 41.7784 17.0974C41.8892 17.2806 42.032 17.4063 42.2067 17.4745C42.3857 17.5384 42.5795 17.5704 42.7884 17.5704C42.9418 17.5704 43.076 17.5597 43.1911 17.5384C43.3061 17.5171 43.3956 17.5001 43.4595 17.4873L43.8047 19.0661C43.6939 19.1087 43.5362 19.1513 43.3317 19.194C43.1271 19.2408 42.8714 19.2664 42.5646 19.2707C42.0618 19.2792 41.593 19.1897 41.1584 19.0022C40.7237 18.8147 40.3722 18.5249 40.1037 18.1329C39.8352 17.7408 39.701 17.2486 39.701 16.6563V6.97237ZM47.862 13.3133V19.1428H45.9508V6.05191H47.8365V10.9227H47.9579C48.188 10.3942 48.5396 9.9745 49.0126 9.66342C49.4856 9.35234 50.1035 9.1968 50.8663 9.1968C51.5396 9.1968 52.1277 9.33529 52.6305 9.61228C53.1376 9.88927 53.5297 10.3026 53.8066 10.8523C54.0879 11.3978 54.2285 12.0796 54.2285 12.8978V19.1428H52.3173V13.1279C52.3173 12.4077 52.1319 11.8495 51.7612 11.4532C51.3904 11.0526 50.8748 10.8523 50.2143 10.8523C49.7626 10.8523 49.3578 10.9482 48.9998 11.14C48.6461 11.3317 48.367 11.613 48.1625 11.9837C47.9622 12.3502 47.862 12.7934 47.862 13.3133ZM58.6902 6.05191V19.1428H56.7789V6.05191H58.6902ZM62.4695 22.8246C62.1839 22.8246 61.924 22.8012 61.6896 22.7543C61.4553 22.7117 61.2805 22.6648 61.1655 22.6137L61.6257 21.0477C61.9751 21.1414 62.2862 21.1819 62.5589 21.1691C62.8317 21.1563 63.0724 21.054 63.2812 20.8623C63.4943 20.6705 63.6818 20.3573 63.8438 19.9227L64.0803 19.2707L60.4879 9.32464H62.5334L65.0199 16.944H65.1222L67.6087 9.32464H69.6605L65.6143 20.4532C65.4268 20.9646 65.1882 21.3971 64.8984 21.7508C64.6087 22.1087 64.2635 22.3772 63.8629 22.5562C63.4624 22.7352 62.9979 22.8246 62.4695 22.8246ZM76.3738 6.05191H78.7708L82.9384 16.228H83.0918L87.2594 6.05191H89.6564V19.1428H87.7772V9.66981H87.6557L83.7949 19.1236H82.2353L78.3745 9.66342H78.253V19.1428H76.3738V6.05191ZM95.2319 19.3602C94.6097 19.3602 94.0472 19.2451 93.5444 19.015C93.0415 18.7806 92.6431 18.4418 92.3491 17.9986C92.0593 17.5555 91.9144 17.0121 91.9144 16.3687C91.9144 15.8147 92.021 15.3587 92.234 15.0008C92.4471 14.6428 92.7347 14.3594 93.0969 14.1506C93.4592 13.9418 93.864 13.7842 94.3114 13.6776C94.7589 13.5711 95.2148 13.4901 95.6793 13.4347C96.2674 13.3665 96.7447 13.3111 97.1112 13.2685C97.4776 13.2217 97.744 13.1471 97.9102 13.0448C98.0763 12.9425 98.1594 12.7763 98.1594 12.5462V12.5015C98.1594 11.9432 98.0018 11.5107 97.6864 11.2039C97.3754 10.8971 96.9109 10.7437 96.293 10.7437C95.6495 10.7437 95.1424 10.8864 94.7717 11.1719C94.4052 11.4532 94.1516 11.7664 94.011 12.1116L92.2148 11.7025C92.4279 11.1059 92.739 10.6244 93.1481 10.2579C93.5614 9.88714 94.0366 9.61867 94.5735 9.45248C95.1104 9.28203 95.6751 9.1968 96.2674 9.1968C96.6594 9.1968 97.0749 9.24367 97.5138 9.33742C97.957 9.42691 98.3704 9.59311 98.7539 9.836C99.1417 10.0789 99.4592 10.4262 99.7063 10.8779C99.9535 11.3254 100.077 11.907 100.077 12.6229V19.1428H98.2106V17.8005H98.1339C98.0103 18.0477 97.8249 18.2905 97.5778 18.5292C97.3306 18.7678 97.0131 18.966 96.6254 19.1236C96.2376 19.2813 95.7731 19.3602 95.2319 19.3602ZM95.6474 17.8261C96.1758 17.8261 96.6275 17.7217 97.0025 17.5129C97.3817 17.304 97.6694 17.0313 97.8654 16.6947C98.0657 16.3538 98.1658 15.9894 98.1658 15.6016V14.336C98.0977 14.4042 97.9656 14.4681 97.7695 14.5278C97.5778 14.5832 97.3583 14.6322 97.1112 14.6748C96.864 14.7131 96.6232 14.7494 96.3888 14.7834C96.1545 14.8133 95.9585 14.8388 95.8008 14.8602C95.43 14.907 95.0913 14.9859 94.7844 15.0967C94.4819 15.2075 94.239 15.3673 94.0558 15.5761C93.8768 15.7806 93.7873 16.0533 93.7873 16.3942C93.7873 16.8673 93.962 17.2252 94.3114 17.4681C94.6609 17.7067 95.1062 17.8261 95.6474 17.8261ZM107.206 9.32464V10.8587H101.843V9.32464H107.206ZM103.281 6.97237H105.192V16.26C105.192 16.6307 105.248 16.9099 105.358 17.0974C105.469 17.2806 105.612 17.4063 105.787 17.4745C105.966 17.5384 106.16 17.5704 106.368 17.5704C106.522 17.5704 106.656 17.5597 106.771 17.5384C106.886 17.5171 106.976 17.5001 107.04 17.4873L107.385 19.0661C107.274 19.1087 107.116 19.1513 106.912 19.194C106.707 19.2408 106.452 19.2664 106.145 19.2707C105.642 19.2792 105.173 19.1897 104.738 19.0022C104.304 18.8147 103.952 18.5249 103.684 18.1329C103.415 17.7408 103.281 17.2486 103.281 16.6563V6.97237ZM113.35 19.341C112.4 19.341 111.582 19.1258 110.896 18.6954C110.214 18.2607 109.69 17.662 109.323 16.8992C108.957 16.1364 108.773 15.2629 108.773 14.2785C108.773 13.2813 108.961 12.4013 109.336 11.6386C109.711 10.8715 110.239 10.2728 110.921 9.8424C111.603 9.412 112.406 9.1968 113.331 9.1968C114.077 9.1968 114.741 9.33529 115.325 9.61228C115.909 9.88501 116.38 10.2685 116.738 10.7629C117.1 11.2572 117.315 11.8346 117.384 12.4951H115.523C115.421 12.0349 115.187 11.6386 114.82 11.3062C114.458 10.9738 113.972 10.8076 113.363 10.8076C112.83 10.8076 112.364 10.9482 111.963 11.2295C111.567 11.5065 111.258 11.9028 111.036 12.4184C110.815 12.9298 110.704 13.5349 110.704 14.2337C110.704 14.9496 110.813 15.5675 111.03 16.0874C111.247 16.6073 111.554 17.01 111.95 17.2955C112.351 17.581 112.822 17.7238 113.363 17.7238C113.725 17.7238 114.053 17.6577 114.347 17.5256C114.646 17.3893 114.895 17.1954 115.095 16.944C115.3 16.6925 115.442 16.39 115.523 16.0363H117.384C117.315 16.6712 117.109 17.238 116.763 17.7366C116.418 18.2352 115.956 18.6272 115.376 18.9127C114.801 19.1982 114.126 19.341 113.35 19.341ZM121.339 13.3133V19.1428H119.427V6.05191H121.313V10.9227H121.434C121.665 10.3942 122.016 9.9745 122.489 9.66342C122.962 9.35234 123.58 9.1968 124.343 9.1968C125.016 9.1968 125.604 9.33529 126.107 9.61228C126.614 9.88927 127.006 10.3026 127.283 10.8523C127.564 11.3978 127.705 12.0796 127.705 12.8978V19.1428H125.794V13.1279C125.794 12.4077 125.608 11.8495 125.238 11.4532C124.867 11.0526 124.351 10.8523 123.691 10.8523C123.239 10.8523 122.834 10.9482 122.476 11.14C122.123 11.3317 121.844 11.613 121.639 11.9837C121.439 12.3502 121.339 12.7934 121.339 13.3133ZM142.312 9.49083C142.244 8.88572 141.963 8.41697 141.469 8.08458C140.974 7.74794 140.352 7.57961 139.602 7.57961C139.065 7.57961 138.601 7.66484 138.209 7.83529C137.817 8.00149 137.512 8.2316 137.295 8.52563C137.082 8.81541 136.975 9.14566 136.975 9.5164C136.975 9.82748 137.048 10.0959 137.192 10.3218C137.342 10.5477 137.536 10.7373 137.774 10.8907C138.017 11.0398 138.277 11.1655 138.554 11.2678C138.831 11.3658 139.097 11.4468 139.353 11.5107L140.631 11.8431C141.049 11.9454 141.477 12.0839 141.916 12.2586C142.355 12.4333 142.762 12.6634 143.137 12.9489C143.512 13.2344 143.815 13.5881 144.045 14.01C144.279 14.4319 144.396 14.9369 144.396 15.5249C144.396 16.2664 144.205 16.9248 143.821 17.5001C143.442 18.0754 142.89 18.5292 142.165 18.8616C141.445 19.194 140.574 19.3602 139.551 19.3602C138.571 19.3602 137.723 19.2046 137.007 18.8935C136.291 18.5825 135.731 18.1414 135.326 17.5704C134.921 16.9951 134.697 16.3133 134.655 15.5249H136.636C136.675 15.9979 136.828 16.3921 137.097 16.7075C137.369 17.0185 137.717 17.2508 138.138 17.4042C138.565 17.5533 139.031 17.6279 139.538 17.6279C140.097 17.6279 140.593 17.5405 141.028 17.3658C141.467 17.1869 141.812 16.9397 142.063 16.6244C142.315 16.3048 142.44 15.9319 142.44 15.5057C142.44 15.118 142.33 14.8005 142.108 14.5533C141.891 14.3062 141.594 14.1016 141.219 13.9397C140.849 13.7778 140.429 13.635 139.96 13.5114L138.413 13.0896C137.365 12.804 136.534 12.3843 135.92 11.8303C135.311 11.2763 135.006 10.5434 135.006 9.63146C135.006 8.8772 135.211 8.21882 135.62 7.65632C136.029 7.09382 136.583 6.65703 137.282 6.34595C137.981 6.03061 138.769 5.87294 139.647 5.87294C140.533 5.87294 141.315 6.02848 141.993 6.33956C142.675 6.65063 143.212 7.0789 143.604 7.62436C143.996 8.16555 144.2 8.78771 144.217 9.49083H142.312ZM151.186 9.32464V10.8587H145.823V9.32464H151.186ZM147.262 6.97237H149.173V16.26C149.173 16.6307 149.228 16.9099 149.339 17.0974C149.45 17.2806 149.593 17.4063 149.767 17.4745C149.946 17.5384 150.14 17.5704 150.349 17.5704C150.502 17.5704 150.637 17.5597 150.752 17.5384C150.867 17.5171 150.956 17.5001 151.02 17.4873L151.365 19.0661C151.254 19.1087 151.097 19.1513 150.892 19.194C150.688 19.2408 150.432 19.2664 150.125 19.2707C149.622 19.2792 149.154 19.1897 148.719 19.0022C148.284 18.8147 147.933 18.5249 147.664 18.1329C147.396 17.7408 147.262 17.2486 147.262 16.6563V6.97237ZM156.158 19.3602C155.536 19.3602 154.973 19.2451 154.47 19.015C153.967 18.7806 153.569 18.4418 153.275 17.9986C152.985 17.5555 152.84 17.0121 152.84 16.3687C152.84 15.8147 152.947 15.3587 153.16 15.0008C153.373 14.6428 153.661 14.3594 154.023 14.1506C154.385 13.9418 154.79 13.7842 155.237 13.6776C155.685 13.5711 156.141 13.4901 156.605 13.4347C157.193 13.3665 157.67 13.3111 158.037 13.2685C158.403 13.2217 158.67 13.1471 158.836 13.0448C159.002 12.9425 159.085 12.7763 159.085 12.5462V12.5015C159.085 11.9432 158.928 11.5107 158.612 11.2039C158.301 10.8971 157.837 10.7437 157.219 10.7437C156.575 10.7437 156.068 10.8864 155.697 11.1719C155.331 11.4532 155.077 11.7664 154.937 12.1116L153.141 11.7025C153.354 11.1059 153.665 10.6244 154.074 10.2579C154.487 9.88714 154.962 9.61867 155.499 9.45248C156.036 9.28203 156.601 9.1968 157.193 9.1968C157.585 9.1968 158.001 9.24367 158.44 9.33742C158.883 9.42691 159.296 9.59311 159.68 9.836C160.067 10.0789 160.385 10.4262 160.632 10.8779C160.879 11.3254 161.003 11.907 161.003 12.6229V19.1428H159.136V17.8005H159.06C158.936 18.0477 158.751 18.2905 158.504 18.5292C158.256 18.7678 157.939 18.966 157.551 19.1236C157.163 19.2813 156.699 19.3602 156.158 19.3602ZM156.573 17.8261C157.102 17.8261 157.553 17.7217 157.928 17.5129C158.308 17.304 158.595 17.0313 158.791 16.6947C158.991 16.3538 159.092 15.9894 159.092 15.6016V14.336C159.023 14.4042 158.891 14.4681 158.695 14.5278C158.504 14.5832 158.284 14.6322 158.037 14.6748C157.79 14.7131 157.549 14.7494 157.315 14.7834C157.08 14.8133 156.884 14.8388 156.727 14.8602C156.356 14.907 156.017 14.9859 155.71 15.0967C155.408 15.2075 155.165 15.3673 154.982 15.5761C154.803 15.7806 154.713 16.0533 154.713 16.3942C154.713 16.8673 154.888 17.2252 155.237 17.4681C155.587 17.7067 156.032 17.8261 156.573 17.8261ZM168.132 9.32464V10.8587H162.769V9.32464H168.132ZM164.207 6.97237H166.118V16.26C166.118 16.6307 166.173 16.9099 166.284 17.0974C166.395 17.2806 166.538 17.4063 166.713 17.4745C166.892 17.5384 167.085 17.5704 167.294 17.5704C167.448 17.5704 167.582 17.5597 167.697 17.5384C167.812 17.5171 167.901 17.5001 167.965 17.4873L168.311 19.0661C168.2 19.1087 168.042 19.1513 167.838 19.194C167.633 19.2408 167.377 19.2664 167.07 19.2707C166.568 19.2792 166.099 19.1897 165.664 19.0022C165.23 18.8147 164.878 18.5249 164.61 18.1329C164.341 17.7408 164.207 17.2486 164.207 16.6563V6.97237ZM170.246 19.1428V9.32464H172.157V19.1428H170.246ZM171.211 7.80973C170.879 7.80973 170.593 7.69893 170.354 7.47734C170.12 7.25149 170.003 6.98302 170.003 6.67194C170.003 6.3566 170.12 6.08813 170.354 5.86654C170.593 5.64069 170.879 5.52777 171.211 5.52777C171.543 5.52777 171.827 5.64069 172.061 5.86654C172.3 6.08813 172.419 6.3566 172.419 6.67194C172.419 6.98302 172.3 7.25149 172.061 7.47734C171.827 7.69893 171.543 7.80973 171.211 7.80973ZM182.085 11.7217L180.353 12.0285C180.281 11.8069 180.166 11.5959 180.008 11.3957C179.855 11.1954 179.646 11.0313 179.382 10.9035C179.117 10.7756 178.787 10.7117 178.391 10.7117C177.85 10.7117 177.398 10.8332 177.036 11.0761C176.673 11.3147 176.492 11.6236 176.492 12.0029C176.492 12.331 176.614 12.5952 176.857 12.7955C177.1 12.9958 177.492 13.1599 178.033 13.2877L179.593 13.6457C180.496 13.8545 181.169 14.1762 181.612 14.6109C182.056 15.0455 182.277 15.6102 182.277 16.3048C182.277 16.8928 182.107 17.417 181.766 17.8772C181.429 18.3332 180.958 18.6911 180.353 18.9511C179.752 19.211 179.056 19.341 178.263 19.341C177.164 19.341 176.267 19.1066 175.572 18.6379C174.877 18.1648 174.451 17.4937 174.294 16.6244L176.141 16.3431C176.256 16.8246 176.492 17.189 176.85 17.4361C177.208 17.679 177.675 17.8005 178.25 17.8005C178.877 17.8005 179.377 17.6705 179.752 17.4106C180.127 17.1464 180.315 16.8246 180.315 16.4454C180.315 16.1386 180.2 15.8807 179.97 15.6719C179.744 15.4631 179.396 15.3055 178.928 15.1989L177.266 14.8346C176.35 14.6258 175.672 14.2934 175.233 13.8374C174.798 13.3815 174.581 12.804 174.581 12.1052C174.581 11.5256 174.743 11.0185 175.067 10.5839C175.391 10.1492 175.838 9.81044 176.409 9.56754C176.98 9.32038 177.634 9.1968 178.372 9.1968C179.433 9.1968 180.268 9.42691 180.877 9.88714C181.487 10.3431 181.889 10.9546 182.085 11.7217ZM188.962 9.32464V10.8587H183.599V9.32464H188.962ZM185.037 6.97237H186.948V16.26C186.948 16.6307 187.004 16.9099 187.114 17.0974C187.225 17.2806 187.368 17.4063 187.543 17.4745C187.722 17.5384 187.915 17.5704 188.124 17.5704C188.278 17.5704 188.412 17.5597 188.527 17.5384C188.642 17.5171 188.732 17.5001 188.795 17.4873L189.141 19.0661C189.03 19.1087 188.872 19.1513 188.668 19.194C188.463 19.2408 188.207 19.2664 187.901 19.2707C187.398 19.2792 186.929 19.1897 186.494 19.0022C186.06 18.8147 185.708 18.5249 185.44 18.1329C185.171 17.7408 185.037 17.2486 185.037 16.6563V6.97237ZM191.076 19.1428V9.32464H192.987V19.1428H191.076ZM192.041 7.80973C191.709 7.80973 191.423 7.69893 191.184 7.47734C190.95 7.25149 190.833 6.98302 190.833 6.67194C190.833 6.3566 190.95 6.08813 191.184 5.86654C191.423 5.64069 191.709 5.52777 192.041 5.52777C192.373 5.52777 192.657 5.64069 192.891 5.86654C193.13 6.08813 193.249 6.3566 193.249 6.67194C193.249 6.98302 193.13 7.25149 192.891 7.47734C192.657 7.69893 192.373 7.80973 192.041 7.80973ZM199.694 19.341C198.744 19.341 197.925 19.1258 197.239 18.6954C196.558 18.2607 196.033 17.662 195.667 16.8992C195.3 16.1364 195.117 15.2629 195.117 14.2785C195.117 13.2813 195.305 12.4013 195.68 11.6386C196.055 10.8715 196.583 10.2728 197.265 9.8424C197.947 9.412 198.75 9.1968 199.675 9.1968C200.42 9.1968 201.085 9.33529 201.669 9.61228C202.253 9.88501 202.724 10.2685 203.082 10.7629C203.444 11.2572 203.659 11.8346 203.727 12.4951H201.867C201.765 12.0349 201.531 11.6386 201.164 11.3062C200.802 10.9738 200.316 10.8076 199.707 10.8076C199.174 10.8076 198.707 10.9482 198.307 11.2295C197.911 11.5065 197.602 11.9028 197.38 12.4184C197.158 12.9298 197.048 13.5349 197.048 14.2337C197.048 14.9496 197.156 15.5675 197.374 16.0874C197.591 16.6073 197.898 17.01 198.294 17.2955C198.695 17.581 199.165 17.7238 199.707 17.7238C200.069 17.7238 200.397 17.6577 200.691 17.5256C200.989 17.3893 201.239 17.1954 201.439 16.944C201.643 16.6925 201.786 16.39 201.867 16.0363H203.727C203.659 16.6712 203.452 17.238 203.107 17.7366C202.762 18.2352 202.3 18.6272 201.72 18.9127C201.145 19.1982 200.469 19.341 199.694 19.341ZM213.128 11.7217L211.396 12.0285C211.324 11.8069 211.209 11.5959 211.051 11.3957C210.898 11.1954 210.689 11.0313 210.425 10.9035C210.16 10.7756 209.83 10.7117 209.434 10.7117C208.893 10.7117 208.441 10.8332 208.079 11.0761C207.716 11.3147 207.535 11.6236 207.535 12.0029C207.535 12.331 207.657 12.5952 207.9 12.7955C208.143 12.9958 208.535 13.1599 209.076 13.2877L210.635 13.6457C211.539 13.8545 212.212 14.1762 212.655 14.6109C213.099 15.0455 213.32 15.6102 213.32 16.3048C213.32 16.8928 213.15 17.417 212.809 17.8772C212.472 18.3332 212.001 18.6911 211.396 18.9511C210.795 19.211 210.099 19.341 209.306 19.341C208.206 19.341 207.309 19.1066 206.615 18.6379C205.92 18.1648 205.494 17.4937 205.336 16.6244L207.184 16.3431C207.299 16.8246 207.535 17.189 207.893 17.4361C208.251 17.679 208.718 17.8005 209.293 17.8005C209.92 17.8005 210.42 17.6705 210.795 17.4106C211.17 17.1464 211.358 16.8246 211.358 16.4454C211.358 16.1386 211.243 15.8807 211.013 15.6719C210.787 15.4631 210.439 15.3055 209.971 15.1989L208.309 14.8346C207.393 14.6258 206.715 14.2934 206.276 13.8374C205.841 13.3815 205.624 12.804 205.624 12.1052C205.624 11.5256 205.786 11.0185 206.11 10.5839C206.434 10.1492 206.881 9.81044 207.452 9.56754C208.023 9.32038 208.677 9.1968 209.415 9.1968C210.476 9.1968 211.311 9.42691 211.92 9.88714C212.53 10.3431 212.932 10.9546 213.128 11.7217Z" fill="#FAFAFA"/>
</svg>
